<?xml version="1.0" encoding="UTF-8" standalone="no"?>
<!DOCTYPE svg PUBLIC "-//W3C//DTD SVG 1.1//EN" "http://www.w3.org/Graphics/SVG/1.1/DTD/svg11.dtd">
<!-- Generated by graphviz version 2.40.1 (20161225.0304)
 -->
<!-- Title: flowchart Pages: 1 -->
<svg width="907pt" height="608pt" viewBox="0.00 0.00 906.76 608.00" xmlns="http://www.w3.org/2000/svg" xmlns:xlink="http://www.w3.org/1999/xlink">
<g id="graph0" class="graph" transform="scale(1 1) rotate(0) translate(4 604)">
<title>flowchart</title>
<polygon fill="#ffffff" stroke="transparent" points="-4,4 -4,-604 902.7628,-604 902.7628,4 -4,4"/>
<!-- p0 -->
<g id="node1" class="node">
<title>p0</title>
<ellipse fill="#000000" stroke="#000000" cx="328.7945" cy="-579.6" rx="3.6" ry="3.6"/>
<text text-anchor="middle" x="274.0665" y="-587.4" font-family="Times,serif" font-size="14.00" fill="#000000">Channel.fromPath</text>
</g>
<!-- p1 -->
<g id="node2" class="node">
<title>p1</title>
<ellipse fill="none" stroke="#000000" cx="328.7945" cy="-535.5" rx="3.5" ry="3.5"/>
<text text-anchor="middle" x="302.3457" y="-543.2" font-family="Times,serif" font-size="14.00" fill="#000000">splitCsv</text>
</g>
<!-- p0&#45;&gt;p1 -->
<g id="edge1" class="edge">
<title>p0-&gt;p1</title>
<path fill="none" stroke="#000000" d="M328.7945,-575.8401C328.7945,-570.0469 328.7945,-558.644 328.7945,-549.4354"/>
<polygon fill="#000000" stroke="#000000" points="332.2946,-549.2504 328.7945,-539.2504 325.2946,-549.2505 332.2946,-549.2504"/>
</g>
<!-- p2 -->
<g id="node3" class="node">
<title>p2</title>
<ellipse fill="none" stroke="#000000" cx="328.7945" cy="-491.5" rx="3.5" ry="3.5"/>
<text text-anchor="middle" x="311.6907" y="-499.2" font-family="Times,serif" font-size="14.00" fill="#000000">filter</text>
</g>
<!-- p1&#45;&gt;p2 -->
<g id="edge2" class="edge">
<title>p1-&gt;p2</title>
<path fill="none" stroke="#000000" d="M328.7945,-531.7486C328.7945,-525.9686 328.7945,-514.5915 328.7945,-505.4038"/>
<polygon fill="#000000" stroke="#000000" points="332.2946,-505.2419 328.7945,-495.2419 325.2946,-505.242 332.2946,-505.2419"/>
</g>
<!-- p3 -->
<g id="node4" class="node">
<title>p3</title>
<ellipse fill="none" stroke="#000000" cx="330.7945" cy="-417.2" rx="88.021" ry="18"/>
<text text-anchor="middle" x="330.7945" y="-413" font-family="Times,serif" font-size="14.00" fill="#000000">prepareReadsSingle</text>
</g>
<!-- p2&#45;&gt;p3 -->
<g id="edge3" class="edge">
<title>p2-&gt;p3</title>
<path fill="none" stroke="#000000" d="M328.891,-487.9164C329.0971,-480.2595 329.5972,-461.6817 330.0331,-445.489"/>
<polygon fill="#000000" stroke="#000000" points="333.536,-445.4219 330.3065,-435.3313 326.5386,-445.2334 333.536,-445.4219"/>
<text text-anchor="middle" x="418.0575" y="-457.4" font-family="Times,serif" font-size="14.00" fill="#000000">sampleToFastqLocationsSingle</text>
</g>
<!-- p8 -->
<g id="node5" class="node">
<title>p8</title>
<ellipse fill="none" stroke="#000000" cx="427.7945" cy="-342.9" rx="3.5" ry="3.5"/>
<text text-anchor="middle" x="413.4039" y="-350.6" font-family="Times,serif" font-size="14.00" fill="#000000">mix</text>
</g>
<!-- p3&#45;&gt;p8 -->
<g id="edge4" class="edge">
<title>p3-&gt;p8</title>
<path fill="none" stroke="#000000" d="M341.6797,-399.2691C349.3027,-387.9772 360.386,-373.8085 373.1619,-364.4 385.7104,-355.159 402.7567,-349.2873 414.4526,-346.0566"/>
<polygon fill="#000000" stroke="#000000" points="415.4286,-349.4206 424.2913,-343.6152 413.7427,-342.6266 415.4286,-349.4206"/>
<text text-anchor="middle" x="432.1108" y="-368.6" font-family="Times,serif" font-size="14.00" fill="#000000">kneadedReadsSingle</text>
</g>
<!-- p9 -->
<g id="node10" class="node">
<title>p9</title>
<ellipse fill="none" stroke="#000000" cx="427.7945" cy="-268.6" rx="57.3282" ry="18"/>
<text text-anchor="middle" x="427.7945" y="-264.4" font-family="Times,serif" font-size="14.00" fill="#000000">runHumann</text>
</g>
<!-- p8&#45;&gt;p9 -->
<g id="edge9" class="edge">
<title>p8-&gt;p9</title>
<path fill="none" stroke="#000000" d="M427.7945,-339.3164C427.7945,-331.6595 427.7945,-313.0817 427.7945,-296.889"/>
<polygon fill="#000000" stroke="#000000" points="431.2946,-296.7312 427.7945,-286.7313 424.2946,-296.7313 431.2946,-296.7312"/>
<text text-anchor="middle" x="468.2216" y="-308.8" font-family="Times,serif" font-size="14.00" fill="#000000">kneadedReads</text>
</g>
<!-- p4 -->
<g id="node6" class="node">
<title>p4</title>
<ellipse fill="#000000" stroke="#000000" cx="528.7945" cy="-579.6" rx="3.6" ry="3.6"/>
<text text-anchor="middle" x="474.0665" y="-587.4" font-family="Times,serif" font-size="14.00" fill="#000000">Channel.fromPath</text>
</g>
<!-- p5 -->
<g id="node7" class="node">
<title>p5</title>
<ellipse fill="none" stroke="#000000" cx="528.7945" cy="-535.5" rx="3.5" ry="3.5"/>
<text text-anchor="middle" x="502.3457" y="-543.2" font-family="Times,serif" font-size="14.00" fill="#000000">splitCsv</text>
</g>
<!-- p4&#45;&gt;p5 -->
<g id="edge5" class="edge">
<title>p4-&gt;p5</title>
<path fill="none" stroke="#000000" d="M528.7945,-575.8401C528.7945,-570.0469 528.7945,-558.644 528.7945,-549.4354"/>
<polygon fill="#000000" stroke="#000000" points="532.2946,-549.2504 528.7945,-539.2504 525.2946,-549.2505 532.2946,-549.2504"/>
</g>
<!-- p6 -->
<g id="node8" class="node">
<title>p6</title>
<ellipse fill="none" stroke="#000000" cx="528.7945" cy="-491.5" rx="3.5" ry="3.5"/>
<text text-anchor="middle" x="511.6907" y="-499.2" font-family="Times,serif" font-size="14.00" fill="#000000">filter</text>
</g>
<!-- p5&#45;&gt;p6 -->
<g id="edge6" class="edge">
<title>p5-&gt;p6</title>
<path fill="none" stroke="#000000" d="M528.7945,-531.7486C528.7945,-525.9686 528.7945,-514.5915 528.7945,-505.4038"/>
<polygon fill="#000000" stroke="#000000" points="532.2946,-505.2419 528.7945,-495.2419 525.2946,-505.242 532.2946,-505.2419"/>
</g>
<!-- p7 -->
<g id="node9" class="node">
<title>p7</title>
<ellipse fill="none" stroke="#000000" cx="526.7945" cy="-417.2" rx="88.4999" ry="18"/>
<text text-anchor="middle" x="526.7945" y="-413" font-family="Times,serif" font-size="14.00" fill="#000000">prepareReadsPaired</text>
</g>
<!-- p6&#45;&gt;p7 -->
<g id="edge7" class="edge">
<title>p6-&gt;p7</title>
<path fill="none" stroke="#000000" d="M528.6981,-487.9164C528.492,-480.2595 527.9919,-461.6817 527.556,-445.489"/>
<polygon fill="#000000" stroke="#000000" points="531.0505,-445.2334 527.2826,-435.3313 524.053,-445.4219 531.0505,-445.2334"/>
<text text-anchor="middle" x="616.0498" y="-457.4" font-family="Times,serif" font-size="14.00" fill="#000000">sampleToFastqLocationsPaired</text>
</g>
<!-- p7&#45;&gt;p8 -->
<g id="edge8" class="edge">
<title>p7-&gt;p8</title>
<path fill="none" stroke="#000000" d="M517.8933,-399.0657C511.4843,-387.6903 501.8545,-373.505 489.7945,-364.4 475.3149,-353.4682 454.8577,-347.8172 441.4631,-345.1072"/>
<polygon fill="#000000" stroke="#000000" points="441.9734,-341.6435 431.5216,-343.3782 440.7739,-348.54 441.9734,-341.6435"/>
<text text-anchor="middle" x="564.1031" y="-368.6" font-family="Times,serif" font-size="14.00" fill="#000000">kneadedReadsPaired</text>
</g>
<!-- p15 -->
<g id="node11" class="node">
<title>p15</title>
<ellipse fill="none" stroke="#000000" cx="748.7945" cy="-179.8" rx="3.5" ry="3.5"/>
<text text-anchor="middle" x="726.6367" y="-187.5" font-family="Times,serif" font-size="14.00" fill="#000000">collect</text>
</g>
<!-- p9&#45;&gt;p15 -->
<g id="edge10" class="edge">
<title>p9-&gt;p15</title>
<path fill="none" stroke="#000000" d="M477.736,-259.6554C511.5917,-253.179 557.2086,-243.6455 596.7945,-232.6 649.2922,-217.9518 710.0559,-194.9636 735.9947,-184.8554"/>
<polygon fill="#000000" stroke="#000000" points="737.5019,-188.0236 745.5269,-181.1063 734.9398,-181.5093 737.5019,-188.0236"/>
<text text-anchor="middle" x="696.9446" y="-220" font-family="Times,serif" font-size="14.00" fill="#000000">taxonAbundances</text>
</g>
<!-- p11 -->
<g id="node12" class="node">
<title>p11</title>
<ellipse fill="none" stroke="#000000" cx="95.7945" cy="-179.8" rx="95.5895" ry="18"/>
<text text-anchor="middle" x="95.7945" y="-175.6" font-family="Times,serif" font-size="14.00" fill="#000000">groupFunctionalUnits</text>
</g>
<!-- p9&#45;&gt;p11 -->
<g id="edge11" class="edge">
<title>p9-&gt;p11</title>
<path fill="none" stroke="#000000" d="M372.8373,-263.42C328.7151,-258.3139 265.54,-248.8569 212.1703,-232.6 186.1715,-224.6805 158.4069,-212.2502 136.5197,-201.4395"/>
<polygon fill="#000000" stroke="#000000" points="138.029,-198.281 127.5215,-196.9234 134.889,-204.5372 138.029,-198.281"/>
<text text-anchor="middle" x="260.6066" y="-220" font-family="Times,serif" font-size="14.00" fill="#000000">geneAbundances</text>
</g>
<!-- p17 -->
<g id="node13" class="node">
<title>p17</title>
<ellipse fill="none" stroke="#000000" cx="229.7945" cy="-179.8" rx="3.5" ry="3.5"/>
<text text-anchor="middle" x="244.9523" y="-187.5" font-family="Times,serif" font-size="14.00" fill="#000000">collect</text>
</g>
<!-- p9&#45;&gt;p17 -->
<g id="edge12" class="edge">
<title>p9-&gt;p17</title>
<path fill="none" stroke="#000000" d="M394.6538,-253.7369C350.1398,-233.773 273.1149,-199.2285 242.6915,-185.5841"/>
<polygon fill="#000000" stroke="#000000" points="244.0347,-182.3507 233.4781,-181.452 241.1702,-188.7377 244.0347,-182.3507"/>
<text text-anchor="middle" x="405.1052" y="-220" font-family="Times,serif" font-size="14.00" fill="#000000">pathwayAbundances</text>
</g>
<!-- p19 -->
<g id="node14" class="node">
<title>p19</title>
<ellipse fill="none" stroke="#000000" cx="510.7945" cy="-179.8" rx="3.5" ry="3.5"/>
<text text-anchor="middle" x="488.6367" y="-187.5" font-family="Times,serif" font-size="14.00" fill="#000000">collect</text>
</g>
<!-- p9&#45;&gt;p19 -->
<g id="edge13" class="edge">
<title>p9-&gt;p19</title>
<path fill="none" stroke="#000000" d="M449.6348,-251.9219C456.6898,-246.1226 464.3483,-239.368 470.7945,-232.6 483.2965,-219.474 495.5676,-202.4947 503.1524,-191.3835"/>
<polygon fill="#000000" stroke="#000000" points="506.2091,-193.1081 508.8431,-182.8458 500.3844,-189.2256 506.2091,-193.1081"/>
<text text-anchor="middle" x="539.0505" y="-220" font-family="Times,serif" font-size="14.00" fill="#000000">pathwayCoverages</text>
</g>
<!-- p16 -->
<g id="node19" class="node">
<title>p16</title>
<ellipse fill="none" stroke="#000000" cx="777.7945" cy="-91" rx="120.9365" ry="18"/>
<text text-anchor="middle" x="777.7945" y="-86.8" font-family="Times,serif" font-size="14.00" fill="#000000">aggregateTaxonAbundances</text>
</g>
<!-- p15&#45;&gt;p16 -->
<g id="edge18" class="edge">
<title>p15-&gt;p16</title>
<path fill="none" stroke="#000000" d="M749.896,-176.4274C752.9684,-167.0193 761.8624,-139.7854 768.791,-118.5694"/>
<polygon fill="#000000" stroke="#000000" points="772.1267,-119.6294 771.9041,-109.0369 765.4726,-117.4562 772.1267,-119.6294"/>
</g>
<!-- p12 -->
<g id="node16" class="node">
<title>p12</title>
<ellipse fill="none" stroke="#000000" cx="69.7945" cy="-91" rx="3.5" ry="3.5"/>
<text text-anchor="middle" x="47.6367" y="-98.7" font-family="Times,serif" font-size="14.00" fill="#000000">collect</text>
</g>
<!-- p11&#45;&gt;p12 -->
<g id="edge15" class="edge">
<title>p11-&gt;p12</title>
<path fill="none" stroke="#000000" d="M90.4073,-161.4006C85.431,-144.4045 78.1568,-119.5602 73.7126,-104.3815"/>
<polygon fill="#000000" stroke="#000000" points="77.0221,-103.2289 70.8531,-94.6153 70.3041,-105.1959 77.0221,-103.2289"/>
<text text-anchor="middle" x="143.7202" y="-131.2" font-family="Times,serif" font-size="14.00" fill="#000000">functionAbundances</text>
</g>
<!-- p18 -->
<g id="node20" class="node">
<title>p18</title>
<ellipse fill="none" stroke="#000000" cx="220.7945" cy="-91" rx="129.6008" ry="18"/>
<text text-anchor="middle" x="220.7945" y="-86.8" font-family="Times,serif" font-size="14.00" fill="#000000">aggregatePathwayAbundances</text>
</g>
<!-- p17&#45;&gt;p18 -->
<g id="edge19" class="edge">
<title>p17-&gt;p18</title>
<path fill="none" stroke="#000000" d="M229.4078,-175.9844C228.4235,-166.2719 225.7516,-139.9096 223.6422,-119.0971"/>
<polygon fill="#000000" stroke="#000000" points="227.1227,-118.7267 222.6321,-109.1306 220.1584,-119.4326 227.1227,-118.7267"/>
</g>
<!-- p20 -->
<g id="node21" class="node">
<title>p20</title>
<ellipse fill="none" stroke="#000000" cx="515.7945" cy="-91" rx="122.6543" ry="18"/>
<text text-anchor="middle" x="515.7945" y="-86.8" font-family="Times,serif" font-size="14.00" fill="#000000">aggregatePathwayCoverages</text>
</g>
<!-- p19&#45;&gt;p20 -->
<g id="edge20" class="edge">
<title>p19-&gt;p20</title>
<path fill="none" stroke="#000000" d="M511.0094,-175.9844C511.5538,-166.3163 513.0271,-140.15 514.1964,-119.3826"/>
<polygon fill="#000000" stroke="#000000" points="517.7059,-119.3116 514.7737,-109.1306 510.7169,-118.918 517.7059,-119.3116"/>
</g>
<!-- p10 -->
<g id="node15" class="node">
<title>p10</title>
<ellipse fill="#000000" stroke="#000000" cx="95.7945" cy="-268.6" rx="3.6" ry="3.6"/>
</g>
<!-- p10&#45;&gt;p11 -->
<g id="edge14" class="edge">
<title>p10-&gt;p11</title>
<path fill="none" stroke="#000000" d="M95.7945,-264.7844C95.7945,-255.1163 95.7945,-228.95 95.7945,-208.1826"/>
<polygon fill="#000000" stroke="#000000" points="99.2946,-207.9306 95.7945,-197.9306 92.2946,-207.9307 99.2946,-207.9306"/>
</g>
<!-- p14 -->
<g id="node17" class="node">
<title>p14</title>
<ellipse fill="none" stroke="#000000" cx="220.7945" cy="-18" rx="130.766" ry="18"/>
<text text-anchor="middle" x="220.7945" y="-13.8" font-family="Times,serif" font-size="14.00" fill="#000000">aggregateFunctionAbundances</text>
</g>
<!-- p12&#45;&gt;p14 -->
<g id="edge16" class="edge">
<title>p12-&gt;p14</title>
<path fill="none" stroke="#000000" d="M71.1999,-87.7695C73.0806,-83.7905 76.7706,-77.0609 81.7945,-73 101.1327,-57.3688 125.4662,-45.7339 148.347,-37.2935"/>
<polygon fill="#000000" stroke="#000000" points="149.781,-40.499 158.0453,-33.8694 147.4505,-33.8983 149.781,-40.499"/>
</g>
<!-- p13 -->
<g id="node18" class="node">
<title>p13</title>
<ellipse fill="#000000" stroke="#000000" cx="371.7945" cy="-91" rx="3.6" ry="3.6"/>
</g>
<!-- p13&#45;&gt;p14 -->
<g id="edge17" class="edge">
<title>p13-&gt;p14</title>
<path fill="none" stroke="#000000" d="M370.255,-87.4875C368.3362,-83.4789 364.7017,-76.9665 359.7945,-73 340.4564,-57.3688 316.1229,-45.7339 293.2421,-37.2935"/>
<polygon fill="#000000" stroke="#000000" points="294.1386,-33.8983 283.5438,-33.8694 291.8081,-40.499 294.1386,-33.8983"/>
</g>
</g>
</svg>